<?xml version="1.0" encoding="utf-8"?>
<!-- Generator: Adobe Illustrator 27.5.0, SVG Export Plug-In . SVG Version: 6.00 Build 0)  -->
<svg version="1.1" id="Layer_1" xmlns="http://www.w3.org/2000/svg" xmlns:xlink="http://www.w3.org/1999/xlink" x="0px" y="0px"
	 viewBox="0 0 1920 1080" style="enable-background:new 0 0 1920 1080;" xml:space="preserve">
<style type="text/css">
	.st0{fill:#006189;}
	.st1{fill:#303F49;}
	.st2{fill:#FFFFFF;}
	.st3{fill:#CBDAE2;}
	.st4{fill:#CD4F00;}
</style>
<g>
	<g>
		<path class="st0" d="M472.2,639.1c-0.7-1.3-0.7-3.1,0-5.2l62.1-172.7c0.7-1.8,1.4-3.1,2.2-3.9c0.8-0.7,2.2-1.1,4.2-1.1h37.4
			c3.7,0,6.1,1.8,7.5,5.5l61.6,172.7c0.5,1.3,0.5,2.8,0,4.4c-0.5,1.6-1.5,2.4-3,2.4h-36.6c-2.5,0-4.1-1.2-4.7-3.5l-13-36.4
			c-0.2-0.8-0.5-1.5-0.9-2c-0.4-0.5-1.2-0.7-2.4-0.7h-60.8c-1.7,0-2.7,0.8-3.2,2.5l-13.2,36.9c-0.3,1-0.9,1.8-1.6,2.4
			c-0.7,0.6-2,0.9-3.6,0.9h-28.7C474,641.1,472.9,640.4,472.2,639.1z M576.4,565.3c2.3,0,3.1-1.4,2.2-4.2l-20.9-58.3
			c-0.5-1-1-1.5-1.6-1.5c-0.6,0-1.1,0.6-1.6,1.7l-21.2,58.1c-1.2,2.8-0.4,4.2,2.2,4.2H576.4z"/>
		<path class="st0" d="M797.3,457.9c0.7,1.2,0.8,2.5,0.1,4l-59.8,174c-1,3.5-3.6,5.2-7.7,5.2h-31.2c-4.3,0-7-1.7-8-5.2l-59.3-173.7
			c-0.5-1.7-0.4-3.1,0.4-4.2c0.7-1.2,1.9-1.7,3.6-1.7h35.9c2.7,0,4.4,1.4,5.2,4.2l40.9,126.1c1,2.7,2,2.6,3-0.2l39.6-125.9
			c0.7-2.8,2.5-4.2,5.5-4.2h28.2C795.4,456.2,796.6,456.7,797.3,457.9z"/>
		<path class="st1" d="M783,639.3c-0.7-1.2-0.7-2.7,0-4.5l62.8-174.2c0.7-1.7,1.4-2.8,2.2-3.5c0.8-0.7,2.1-1,3.7-1H883
			c3.5,0,5.8,1.7,7,5l62.3,174c0.5,1.3,0.5,2.7,0,4c-0.5,1.3-1.4,2-2.7,2h-30.2c-2.3,0-3.8-1.1-4.5-3.2l-14.5-40.4
			c-0.2-0.8-0.5-1.5-0.9-1.9c-0.4-0.4-1.1-0.6-2.1-0.6h-65c-1.5,0-2.5,0.7-3,2.2l-15,40.9c-0.2,1-0.6,1.7-1.4,2.2
			c-0.7,0.5-1.8,0.7-3.1,0.7h-24.2C784.6,641.1,783.7,640.5,783,639.3z M888.4,566.8c2.2,0,2.8-1.3,2-4l-23.9-66.5
			c-0.5-1.2-1.1-1.7-1.7-1.7c-0.7,0-1.2,0.7-1.7,2l-24.2,66.3c-1,2.7-0.3,4,2,4H888.4z"/>
		<path class="st1" d="M971.2,636.6V513.2c0-2.8,1.2-4.2,3.5-4.2h24.9c2.2,0,3.2,1.2,3.2,3.7v13c0,1,0.2,1.6,0.7,1.9
			c0.5,0.2,1.2,0,2-0.9c4.8-4.2,9.5-7.7,14-10.7c4.5-3,9.1-5.3,14-7c4.8-1.7,10-2.5,15.7-2.5c12.3,0,22,3.5,29,10.6
			c7.1,7.1,10.6,16.4,10.6,28v90.7c0,3.5-1.7,5.2-5.2,5.2h-22.9c-1.5,0-2.6-0.3-3.2-1c-0.7-0.7-1-1.8-1-3.5v-85.7
			c0-6.5-1.7-11.5-5.2-15.1c-3.5-3.6-8.7-5.4-15.7-5.4c-4,0-7.7,0.6-11.1,1.9c-3.4,1.2-6.8,3.1-10.1,5.6c-3.3,2.5-6.9,5.7-10.7,9.5
			v88.7c0,3.3-1.9,5-5.7,5h-22.2C972.7,641.1,971.2,639.6,971.2,636.6z"/>
		<path class="st1" d="M1112.5,636.6V513.2c0-2.8,1.2-4.2,3.5-4.2h24.9c2.2,0,3.2,1.2,3.2,3.7v13c0,1,0.2,1.6,0.7,1.9s1.2,0,2-0.9
			c4.8-4.2,9.5-7.7,14-10.7c4.5-3,9.1-5.3,14-7c4.8-1.7,10.1-2.5,15.7-2.5c12.3,0,22,3.5,29,10.6c7.1,7.1,10.6,16.4,10.6,28v90.7
			c0,3.5-1.7,5.2-5.2,5.2H1202c-1.5,0-2.6-0.3-3.2-1c-0.7-0.7-1-1.8-1-3.5v-85.7c0-6.5-1.7-11.5-5.2-15.1c-3.5-3.6-8.7-5.4-15.7-5.4
			c-4,0-7.7,0.6-11.1,1.9c-3.4,1.2-6.8,3.1-10.1,5.6c-3.3,2.5-6.9,5.7-10.7,9.5v88.7c0,3.3-1.9,5-5.7,5H1117
			C1114,641.1,1112.5,639.6,1112.5,636.6z"/>
		<path class="st1" d="M1278.5,634.8c-9.8-5.8-17.5-13.8-23.1-24.1c-5.6-10.2-8.3-21.9-8.3-35c0-13.8,2.9-25.9,8.6-36.3
			c5.7-10.4,13.5-18.5,23.4-24.3c9.9-5.8,21.1-8.7,33.8-8.7c13.1,0,24.6,3,34.4,8.8c9.8,5.9,17.4,14,22.9,24.4
			c5.5,10.4,8.2,22.3,8.2,35.8c0,13.3-2.8,25-8.3,35.3c-5.6,10.2-13.3,18.2-23.1,24.1c-9.8,5.8-21.3,8.7-34.4,8.7
			C1299.6,643.6,1288.3,640.7,1278.5,634.8z M1330.8,616c4.8-3.6,8.5-8.8,11-15.7c2.5-6.9,3.7-15.3,3.7-25.3
			c0-10.1-1.3-18.7-3.9-25.7c-2.6-7-6.3-12.3-11.1-16c-4.8-3.7-10.7-5.5-17.7-5.5c-6.8,0-12.7,1.8-17.7,5.5c-5,3.7-8.8,9-11.3,16
			c-2.6,7-3.9,15.5-3.9,25.7c0,10,1.3,18.4,3.9,25.3c2.6,6.9,6.4,12.1,11.3,15.7c5,3.6,10.9,5.4,17.7,5.4
			C1320,621.4,1326,619.6,1330.8,616z"/>
		<path class="st1" d="M1441.2,531.7c-1.7,0-2.5,0.9-2.5,2.7V601c0,6.5,1.3,11,4,13.5c2.7,2.5,6.8,3.7,12.5,3.7h14.7
			c1,0,1.8,0.3,2.5,1c0.7,0.7,1,1.5,1,2.5l-0.2,13c0,2.7-1.6,4.3-4.7,5c-2.5,0.3-5.4,0.6-8.7,0.9c-3.3,0.2-6.6,0.4-9.8,0.5
			c-3.2,0.1-6.2,0.1-8.8,0.1c-11.1,0-19.7-2.6-25.7-7.8c-6-5.2-9-13.2-9-23.8v-74.5c0-2.2-1-3.2-3-3.2h-16.7c-2.7,0-4-1.2-4-3.7
			v-15.7c0-2.2,1.2-3.2,3.7-3.2h18.4c1.5,0,2.2-0.8,2.2-2.5l3.2-38.4c0.2-2.7,1.3-4,3.5-4h22.2c2.3,0,3.5,1.4,3.5,4.2v38.1
			c0,1.5,0.7,2.2,2.2,2.2h28.2c2.5,0,3.7,1.2,3.7,3.5v15.7c0,2.5-1.4,3.7-4.2,3.7H1441.2z"/>
		<path class="st1" d="M1544.9,639.2c-6.6,2.9-14.2,4.4-22.7,4.4c-12.8,0-22.8-3.4-30-10.1c-7.2-6.7-10.8-15.5-10.8-26.3
			c0-9.1,2.7-17.1,8.2-23.8c5.5-6.7,13.5-12,23.9-15.8c10.5-3.8,23-6.1,37.6-6.7l12.5-0.7c1-0.2,1.9-0.5,2.7-1
			c0.8-0.5,1.2-1.4,1.2-2.7v-5.7c0-7.3-2.2-13-6.5-17.1c-4.3-4.1-10.3-6.1-17.9-6.1c-5.8,0-11.3,1.3-16.3,3.9
			c-5.1,2.6-9.4,6.8-13.1,12.6c-0.5,1-1,1.7-1.6,2c-0.6,0.3-1.6,0.3-3.1,0l-20.9-5.2c-0.8-0.3-1.5-0.8-1.9-1.5c-0.4-0.7-0.1-2,0.9-4
			c4.5-9.5,11.6-16.6,21.3-21.4c9.7-4.8,21.8-7.2,36.3-7.2c12.8,0,23.1,1.7,31,5.2c7.9,3.5,13.7,8.3,17.3,14.6
			c3.7,6.2,5.5,13.6,5.5,22.1v87.7c0,1.8-0.3,3.1-0.9,3.9c-0.6,0.7-1.7,1.1-3.4,1.1H1573c-1.5,0-2.6-0.6-3.2-1.7
			c-0.7-1.2-1.1-2.6-1.2-4.2l-0.5-7.5c-0.3-2.8-1.9-2.9-4.7-0.2C1557.7,632.4,1551.5,636.3,1544.9,639.2z M1563.8,576.5l-10.2,0.7
			c-5.3,0.3-10.4,1.1-15.3,2.4c-4.9,1.2-9.2,2.9-13,5c-3.7,2.1-6.7,4.7-9,7.7c-2.2,3.1-3.4,6.7-3.4,10.8c0,5.6,2,10.1,6.1,13.5
			c4.1,3.3,9.6,5,16.6,5c4.5,0,8.6-0.7,12.5-2.2c3.8-1.5,7.1-3.4,10-5.7c2.8-2.3,5.1-4.8,6.9-7.4c1.7-2.6,2.6-5.2,2.6-7.8v-17.7
			C1567.6,577.8,1566.3,576.4,1563.8,576.5z"/>
		<path class="st1" d="M1667.8,531.7c-1.7,0-2.5,0.9-2.5,2.7V601c0,6.5,1.3,11,4,13.5c2.7,2.5,6.8,3.7,12.5,3.7h14.7
			c1,0,1.8,0.3,2.5,1c0.7,0.7,1,1.5,1,2.5l-0.2,13c0,2.7-1.6,4.3-4.7,5c-2.5,0.3-5.4,0.6-8.7,0.9c-3.3,0.2-6.6,0.4-9.8,0.5
			c-3.2,0.1-6.2,0.1-8.8,0.1c-11.1,0-19.7-2.6-25.7-7.8c-6-5.2-9-13.2-9-23.8v-74.5c0-2.2-1-3.2-3-3.2h-16.7c-2.7,0-4-1.2-4-3.7
			v-15.7c0-2.2,1.2-3.2,3.7-3.2h18.4c1.5,0,2.2-0.8,2.2-2.5l3.2-38.4c0.2-2.7,1.3-4,3.5-4h22.2c2.3,0,3.5,1.4,3.5,4.2v38.1
			c0,1.5,0.7,2.2,2.2,2.2h28.2c2.5,0,3.7,1.2,3.7,3.5v15.7c0,2.5-1.4,3.7-4.2,3.7H1667.8z"/>
		<path class="st1" d="M1744.8,603.6c3.2,5.4,7.5,9.6,13.1,12.7c5.6,3.1,11.7,4.6,18.3,4.6c6.8,0,13-1.4,18.6-4.2
			c5.6-2.8,10.8-7.4,15.8-13.7c0.7-0.8,1.2-1.3,1.7-1.4c0.5-0.1,1.3,0.2,2.5,0.9l15.2,6.7c2.2,1,2.4,2.5,0.7,4.5
			c-5,7.3-10.3,13.2-16.1,17.6c-5.7,4.4-12,7.6-18.9,9.5c-6.9,1.9-14.7,2.9-23.3,2.9c-12.6,0-23.9-2.8-33.9-8.5
			c-10-5.6-17.8-13.5-23.6-23.6c-5.7-10-8.6-21.6-8.6-34.8c0-14.5,2.9-26.9,8.8-37.4c5.9-10.5,13.8-18.6,23.8-24.3
			c10-5.7,20.9-8.6,32.9-8.6c12.6,0,23.6,2.7,33,8.2c9.4,5.5,16.7,13.3,22.1,23.6c5.3,10.2,8,22.6,8,37.3c0,1.7-0.1,3-0.4,4
			c-0.2,1-1.5,1.6-3.6,1.7h-88.2c-1,0-1.7,0.3-2.1,1c-0.4,0.7-0.6,1.7-0.6,3C1740,592.1,1741.6,598.2,1744.8,603.6z M1799.1,562.8
			c1.7,0,2.8-0.2,3.4-0.6c0.6-0.4,0.9-1.4,0.9-2.9c0-5.1-1.2-10.2-3.5-15.2c-2.3-5-5.7-9.1-10.2-12.3c-4.5-3.2-10-4.9-16.4-4.9
			c-6.6,0-12.5,1.6-17.4,4.9c-5,3.2-8.8,7.6-11.3,13c-2.6,5.4-3.9,11.4-3.9,18.1H1799.1z"/>
	</g>
	<g>
		<g>
			<path class="st2" d="M92.2,426.4v227.1c0,0.5,0.4,0.9,1,0.9h292.7c0.5,0,1-0.4,1-0.9V502.2c0-0.2-0.1-0.5-0.3-0.7l-80.6-75.7
				c-0.2-0.2-0.4-0.3-0.7-0.3H93.2C92.6,425.5,92.2,425.9,92.2,426.4z"/>
			<path class="st1" d="M93.2,418.3h212.1c2.1,0,4.1,0.8,5.6,2.2l80.6,75.7c1.6,1.5,2.5,3.7,2.5,5.9v151.4c0,4.5-3.7,8.1-8.2,8.1
				H93.2c-4.5,0-8.2-3.6-8.2-8.1V426.4C85,422,88.7,418.3,93.2,418.3z M379.7,647.3V504.9l-76.9-72.2H99.4v214.6H379.7z"/>
		</g>
		<g>
			<path class="st3" d="M380,506.6h-71.6c-1.5,0-2.8-1.2-2.8-2.8v-71.6c0-2.5,3-3.7,4.7-1.9l71.6,71.6
				C383.7,503.6,382.5,506.6,380,506.6z"/>
			<path class="st1" d="M304.6,423c3.7-1.5,8-0.7,10.8,2.2l71.6,71.6c2.8,2.9,3.7,7.1,2.2,10.8c-1.5,3.7-5.1,6.1-9.2,6.1h-71.6
				c-5.5,0-9.9-4.5-9.9-9.9v-71.6C298.5,428.1,300.9,424.5,304.6,423z M369.4,499.4l-56.6-56.6v56.6H369.4z"/>
		</g>
		<rect x="99.4" y="432.7" class="st1" width="204.6" height="51.1"/>
		<g>
			<path class="st2" d="M124.3,472.8L124.3,472.8c-4.4,0-8-3.6-8-8v-21.3c0-4.4,3.6-8,8-8h0c4.4,0,8,3.6,8,8v21.3
				C132.3,469.2,128.7,472.8,124.3,472.8z"/>
			<path class="st2" d="M165.4,472.8L165.4,472.8c-4.4,0-8-3.6-8-8v-21.3c0-4.4,3.6-8,8-8h0c4.4,0,8,3.6,8,8v21.3
				C173.4,469.2,169.8,472.8,165.4,472.8z"/>
			<path class="st2" d="M206.5,472.8L206.5,472.8c-4.4,0-8-3.6-8-8v-21.3c0-4.4,3.6-8,8-8h0c4.4,0,8,3.6,8,8v21.3
				C214.4,469.2,210.8,472.8,206.5,472.8z"/>
			<path class="st2" d="M247.5,472.8L247.5,472.8c-4.4,0-8-3.6-8-8v-21.3c0-4.4,3.6-8,8-8h0c4.4,0,8,3.6,8,8v21.3
				C255.5,469.2,251.9,472.8,247.5,472.8z"/>
			<path class="st2" d="M288.6,472.8L288.6,472.8c-4.4,0-8-3.6-8-8v-21.3c0-4.4,3.6-8,8-8h0c4.4,0,8,3.6,8,8v21.3
				C296.5,469.2,293,472.8,288.6,472.8z"/>
		</g>
		<rect x="99.4" y="596.3" class="st1" width="283.4" height="51.1"/>
		<g>
			<path class="st2" d="M115.1,644.5L115.1,644.5c-4.4,0-8-3.6-8-8v-21.3c0-4.4,3.6-8,8-8h0c4.4,0,8,3.6,8,8v21.3
				C123,640.9,119.5,644.5,115.1,644.5z"/>
			<path class="st2" d="M156.1,644.5L156.1,644.5c-4.4,0-8-3.6-8-8v-21.3c0-4.4,3.6-8,8-8h0c4.4,0,8,3.6,8,8v21.3
				C164.1,640.9,160.5,644.5,156.1,644.5z"/>
			<path class="st2" d="M197.2,644.5L197.2,644.5c-4.4,0-8-3.6-8-8v-21.3c0-4.4,3.6-8,8-8h0c4.4,0,8,3.6,8,8v21.3
				C205.2,640.9,201.6,644.5,197.2,644.5z"/>
			<path class="st2" d="M238.2,644.5L238.2,644.5c-4.4,0-8-3.6-8-8v-21.3c0-4.4,3.6-8,8-8h0c4.4,0,8,3.6,8,8v21.3
				C246.2,640.9,242.6,644.5,238.2,644.5z"/>
			<path class="st2" d="M279.3,644.5L279.3,644.5c-4.4,0-8-3.6-8-8v-21.3c0-4.4,3.6-8,8-8l0,0c4.4,0,8,3.6,8,8v21.3
				C287.3,640.9,283.7,644.5,279.3,644.5z"/>
			<path class="st2" d="M320.3,644.5L320.3,644.5c-4.4,0-8-3.6-8-8v-21.3c0-4.4,3.6-8,8-8h0c4.4,0,8,3.6,8,8v21.3
				C328.3,640.9,324.7,644.5,320.3,644.5z"/>
			<path class="st2" d="M361.4,644.5L361.4,644.5c-4.4,0-8-3.6-8-8v-21.3c0-4.4,3.6-8,8-8h0c4.4,0,8,3.6,8,8v21.3
				C369.4,640.9,365.8,644.5,361.4,644.5z"/>
		</g>
	</g>
	<line class="st4" x1="262" y1="523.2" x2="262" y2="554.8"/>
	<path class="st0" d="M173.4,551.2c-3.9,0-7-3.1-7-7v-8.9c0-3.9,3.1-7,7-7s7,3.1,7,7v8.9C180.4,548.1,177.3,551.2,173.4,551.2z"/>
	<path class="st0" d="M197.1,575.7c-3.9,0-7-3.1-7-7v-58c0-3.9,3.1-7,7-7s7,3.1,7,7v58C204.1,572.6,201,575.7,197.1,575.7z"/>
	<path class="st0" d="M220.9,562.8c-3.9,0-7-3.1-7-7v-32.2c0-3.9,3.1-7,7-7c3.9,0,7,3.1,7,7v32.2
		C227.9,559.7,224.7,562.8,220.9,562.8z"/>
	<path class="st0" d="M244.6,585.3c-3.9,0-7-3.1-7-7v-77.1c0-3.9,3.1-7,7-7s7,3.1,7,7v77.1C251.6,582.1,248.5,585.3,244.6,585.3z"/>
	<path class="st0" d="M268.3,564c-3.9,0-7-3.1-7-7v-34.5c0-3.9,3.1-7,7-7s7,3.1,7,7v34.5C275.3,560.8,272.2,564,268.3,564z"/>
	<path class="st0" d="M292.1,555.1c-3.9,0-7-3.1-7-7v-16.7c0-3.9,3.1-7,7-7s7,3.1,7,7v16.7C299.1,552,295.9,555.1,292.1,555.1z"/>
</g>
</svg>
